# xmcd CD database file generated by Grip 2.96
# 
# Track frame offsets:
#       150
#       15239
#       27079
#       46625
#       54441
#       70448
#       84392
#       94693
#       106849
#       121923
#       124745
#       138735
#       160312
# 
# Disc length: 2158 seconds
# 
# Revision: 0
# Processed by: cddbd v1.4PL0 Copyright (c) Steve Scherf et al.
# Submitted via: Grip 2.96
# 
DISCID=9d086c0d
DTITLE=Country Mike and The Boys - Country Mike's Greatest Hits
DYEAR=1900
DGENRE=
TTITLE0=Sloppy Drunks
TTITLE1=Railroad Blues
TTITLE2=We Can Do This
TTITLE3=Country Delight
TTITLE4=Don't Let The Air Out My Tires
TTITLE5=How Do You Mend An Achin' Heart?
TTITLE6=One Song A Night
TTITLE7=Country Christmas
TTITLE8=Kenny Jones (Country Knows Best)
TTITLE9=Country Mike's Theme
TTITLE10=On Your Way Up Again (The Fowl Song)
TTITLE11=We Can Do This (live)
TTITLE12=The Half-Wit
EXTD=
EXTT0=
EXTT1=
EXTT2=
EXTT3=
EXTT4=
EXTT5=
EXTT6=
EXTT7=
EXTT8=
EXTT9=
EXTT10=
EXTT11=
EXTT12=
PLAYORDER=
